<?xml version="1.0" encoding="utf-8"?>i
<!-- Generator: Adobe Adobe Illustrator 24.2.0, SVG Export Plug-In . SVG Version: 6.00 Build 0)  -->
<svg version="1.1" id="Layer_1" xmlns="http://www.w3.org/2000/svg" xmlns:xlink="http://www.w3.org/1999/xlink" x="0px" y="0px"
	 viewBox="0 0 1024 1024" style="enable-background:new 0 0 1024 1024;" xml:space="preserve">
<style type="text/css">
	.st0{fill:none;}
	.st1{fill:#FFFFFF;}
	.st2{fill:#4088C0;}
</style>
<path class="st0" d="M202.93,663.55h-15.4v155.81h14.71c13.15,0,21.98-11.24,21.98-26.16V692.23
	C224.22,678.28,217.64,663.55,202.93,663.55z"/>
<path class="st0" d="M812.76,618.2c14.71,0,21.29-15.7,21.29-28.68v-19.38h-36.69v48.06H812.76z"/>
<path class="st0" d="M202.93,618.2c14.71,0,21.29-15.7,21.29-28.68v-19.38h-36.69v48.06H202.93z"/>
<path class="st0" d="M380.31,619.95c15.4,0,18.34-16.47,18.34-25.19v-24.61h-36.69v24.42C361.97,605.99,367.16,619.95,380.31,619.95
	z"/>
<path class="st0" d="M812.76,663.55h-15.4v155.81h14.71c13.15,0,21.98-11.24,21.98-26.16V692.23
	C834.05,678.28,827.47,663.55,812.76,663.55z"/>
<rect width="1024" height="1024"/>
<path class="st1" d="M224.22,589.52c0,12.98-6.58,28.68-21.29,28.68h-15.4v-48.06H137v290.12h63.86c53.47,0,74.07-18.22,74.07-83.53
	v-94.96c0-22.67-5.19-52.33-29.25-61.05c24.75-6.78,29.07-29.46,29.25-50.58h-50.7V589.52z M224.22,793.2
	c0,14.73-8.83,26.16-21.98,26.16h-14.71V663.55h15.4c14.71,0,21.29,14.73,21.29,28.68C224.22,692.23,224.22,793.2,224.22,793.2z"/>
<path class="st1" d="M398.65,594.75c0,8.72-2.94,25.19-18.34,25.19c-13.15,0-18.34-13.95-18.34-25.19v-24.61h-50.53v30.62
	c0,26.16,13.84,49.61,43.95,60.08v199.42h49.84V660.06c31.5-5.23,43.95-31.4,43.95-58.33v-31.59h-50.53L398.65,594.75L398.65,594.75
	z"/>
<rect x="573.09" y="570.14" class="st1" width="50.53" height="291.86"/>
<rect x="659.61" y="570.14" class="st1" width="50.53" height="291.86"/>
<rect x="485.87" y="570.14" class="st1" width="50.53" height="291.86"/>
<path class="st1" d="M834.05,589.52c0,12.98-6.58,28.68-21.29,28.68h-15.4v-48.06h-50.53v290.12h63.86
	c53.47,0,74.07-18.22,74.07-83.53v-94.96c0-22.67-5.19-52.33-29.25-61.05c24.75-6.78,29.07-29.46,29.25-50.58h-50.53v19.38H834.05z
	 M834.05,793.2c0,14.73-8.83,26.16-21.98,26.16h-14.71V663.55h15.4c14.71,0,21.29,14.73,21.29,28.68V793.2L834.05,793.2z"/>
<path class="st0" d="M202.24,200.37h-14.71v253.49h36.69V226.34C224.22,212.39,216.78,200.37,202.24,200.37z"/>
<path class="st0" d="M834.05,226.34c0-13.95-7.27-26.16-21.98-26.16h-14.71v253.68h36.69V226.34z"/>
<path class="st0" d="M554.05,204.64c-14.71,0-17.65,16.47-17.65,26.16v223.06h36.69V204.64H554.05z"/>
<path class="st0" d="M641.27,204.64h-17.65v249.22h35.99V230.8C659.61,222.08,656.67,204.64,641.27,204.64z"/>
<path class="st1" d="M187.53,200.37h14.71c14.71,0,21.98,12.21,21.98,26.16v227.33h50.53V243.01c0-67.05-27.17-81.01-74.07-81.01
	H137v291.86h50.53V200.37z"/>
<rect x="311.43" y="162" class="st1" width="50.53" height="291.86"/>
<rect x="398.65" y="162" class="st1" width="50.53" height="291.86"/>
<path class="st1" d="M536.4,230.8c0-9.5,2.94-26.16,17.65-26.16h19.04v249.22h50.53V204.64h17.65c15.4,0,18.34,17.44,18.34,26.16
	v223.06h50.53V240.29c0-50.58-18.34-77.52-66.62-77.52h-90.85c-45.51,0-66.62,24.42-66.62,78.29v212.79h50.53V230.8H536.4z"/>
<path class="st1" d="M810.51,162h-63.86v291.86h50.53V200.37h14.71c14.71,0,21.98,12.21,21.98,26.16v227.33h50.53V243.01
	C884.58,175.95,857.41,162,810.51,162z"/>
<g>
	<path class="st2" d="M311.43,480.6c-1.21,0-2.08,0.39-2.77,1.16c-0.69,0.78-1.04,1.94-1.04,3.29c0,1.36,0.35,2.33,1.04,3.1
		c0.69,0.78,1.56,1.16,2.6,1.16c1.21,0,2.08-0.39,2.77-1.16c0.69-0.78,1.04-1.94,1.04-3.29c0-1.36-0.35-2.33-0.87-3.1
		C313.34,480.99,312.47,480.6,311.43,480.6z"/>
	<path class="st2" d="M771.75,480.6c-1.21,0-2.08,0.39-2.77,1.16s-1.04,1.94-1.04,3.29c0,1.36,0.35,2.33,0.87,3.1
		c0.69,0.78,1.56,1.16,2.6,1.16c1.21,0,2.08-0.39,2.77-1.16c0.69-0.78,1.04-1.94,1.04-3.29c0-1.36-0.35-2.33-0.87-3.1
		S772.96,480.6,771.75,480.6z"/>
	<path class="st2" d="M854.29,480.6c-1.21,0-2.08,0.39-2.77,1.16c-0.69,0.78-1.04,1.94-1.04,3.29c0,1.36,0.35,2.33,0.87,3.1
		c0.69,0.78,1.56,1.16,2.6,1.16s2.08-0.39,2.77-1.16c0.69-0.78,1.04-1.94,1.04-3.29c0-1.36-0.35-2.33-0.87-3.1
		C856.2,480.99,855.33,480.6,854.29,480.6z"/>
	<path class="st2" d="M151.88,532.54c2.94,0,5.54-0.58,7.79-1.94c2.25-1.36,3.98-3.1,5.19-5.43c1.21-2.33,1.9-4.65,1.9-7.36
		c0-2.52-0.52-4.65-1.56-6.4c-1.04-1.74-2.25-3.29-3.81-4.26c-1.38-1.16-3.46-2.33-5.71-3.68c-2.77-1.55-4.67-2.91-6.06-4.07
		c-1.21-1.16-1.9-2.71-1.9-4.46c0-1.94,0.69-3.49,1.9-4.84s2.94-2.13,5.19-2.13c1.38,0,2.77,0.39,4.33,0.97
		c1.56,0.58,2.94,1.55,4.33,2.71l1.04-0.39l1.04-7.36c-3.29-1.74-6.58-2.52-10.04-2.52c-2.77,0-5.36,0.58-7.44,1.94
		c-2.25,1.36-3.98,3.1-5.19,5.23c-1.21,2.13-1.9,4.65-1.9,7.36c0,2.52,0.52,4.65,1.56,6.4c1.04,1.74,2.25,3.1,3.63,4.26
		c1.38,0.97,3.29,2.33,5.71,3.49c2.77,1.55,4.67,2.91,6.06,4.07c1.38,1.16,1.9,2.71,1.9,4.84c0,1.94-0.69,3.68-2.08,5.04
		c-1.38,1.36-3.11,2.13-5.36,2.13c-1.73,0-3.46-0.39-5.36-1.36s-3.81-2.33-5.36-4.07l-0.87,0.39v0.19l-0.87,7.75
		c0.35,0.19,0.52,0.19,0.87,0.39c1.56,0.78,3.29,1.55,5.02,2.13C147.9,532.16,149.98,532.54,151.88,532.54z"/>
	<path class="st2" d="M194.11,526.15c-0.69,0-1.04-0.19-1.38-0.58c-0.35-0.39-0.35-0.97-0.35-1.94l0.52-27.52l-6.4,0.78v25.19
		c-2.42,2.52-4.85,3.88-7.1,3.88c-1.56,0-2.6-0.58-3.46-1.55c-0.69-1.16-1.21-2.52-1.04-4.46l0.35-23.64l-6.58,0.78l0.35,15.5
		l-0.17,9.69c0,3.29,0.87,6.01,2.6,7.75c1.73,1.74,4.33,2.71,7.61,2.71c2.6-0.97,5.36-2.71,7.96-5.43h0.52
		c0.35,1.74,1.04,2.91,1.73,3.88c0.69,0.78,1.73,1.36,3.11,1.74c1.38-0.19,2.77-0.78,4.33-1.74l0.52-4.26l-0.52-0.58
		C195.32,526.15,194.63,526.15,194.11,526.15z"/>
	<path class="st2" d="M209.34,526.34c-2.42,0-4.5-1.16-5.71-3.29c-1.38-2.13-2.08-5.23-2.08-9.3c0-3.68,0.69-6.59,1.9-8.72
		c1.38-2.13,3.11-3.1,5.36-3.1c1.9,0,4.15,0.78,6.4,2.33l0.69-0.39l1.04-6.59c-1.04-0.58-2.42-1.16-3.81-1.55
		c-1.38-0.39-2.94-0.58-4.33-0.58c-4.33,0-7.79,1.74-10.21,5.04c-2.42,3.29-3.63,7.95-3.63,13.95c0,5.62,1.21,10.08,3.46,13.37
		c2.25,3.29,5.54,4.84,9.69,4.84c2.6,0,5.36-0.58,7.96-1.74l0.69-6.4l-0.52-0.39C213.83,525.57,211.58,526.34,209.34,526.34z"/>
	<path class="st2" d="M229.58,526.34c-2.42,0-4.5-1.16-5.71-3.29c-1.38-2.13-2.08-5.23-2.08-9.3c0-3.68,0.69-6.59,1.9-8.72
		c1.38-2.13,3.11-3.1,5.36-3.1c1.9,0,4.15,0.78,6.4,2.33l0.69-0.39l1.04-6.59c-1.04-0.58-2.42-1.16-3.81-1.55
		c-1.38-0.39-2.94-0.58-4.33-0.58c-4.33,0-7.79,1.74-10.21,5.04c-2.42,3.29-3.63,7.95-3.63,13.95c0,5.62,1.21,10.08,3.46,13.37
		c2.25,3.29,5.54,4.84,9.69,4.84c2.6,0,5.36-0.58,7.96-1.74l0.69-6.4l-0.52-0.39C234.08,525.57,231.66,526.34,229.58,526.34z"/>
	<path class="st2" d="M250.87,526.53c-2.94,0-5.19-0.97-6.75-3.1c-1.56-2.13-2.42-5.04-2.42-8.91h18.52l0.69-0.97
		c0.17-1.74,0.35-3.1,0.35-4.26c0-4.26-1.04-7.75-2.94-10.08c-2.08-2.33-4.85-3.49-8.48-3.49c-4.33,0-7.79,1.74-10.38,5.04
		c-2.6,3.29-3.81,7.95-3.81,13.57c0,5.62,1.21,10.08,3.81,13.37c2.6,3.29,6.06,4.84,10.56,4.84c2.94,0,6.06-0.78,9.34-2.52l1.04-6.4
		l-0.69-0.39C256.75,525.37,253.81,526.53,250.87,526.53z M244.64,503.28c1.38-1.55,2.94-2.33,5.02-2.33c1.73,0,3.11,0.58,4.15,1.94
		c0.87,1.16,1.38,3.1,1.38,5.43l-0.17,1.16l-12.98,0.39C242.39,506.96,243.25,504.83,244.64,503.28z"/>
	<path class="st2" d="M279.77,516.65c-0.69-1.36-1.73-2.33-2.77-3.1c-1.04-0.78-2.42-1.55-4.15-2.52c-1.9-0.97-3.29-1.74-4.15-2.52
		c-0.87-0.78-1.38-1.74-1.38-3.1c0-1.16,0.35-2.13,1.21-3.1c0.69-0.78,1.73-1.16,3.11-1.16c2.25,0,4.5,0.97,6.75,2.71l0.87-0.19
		l0.87-6.2c-2.42-1.16-5.02-1.74-7.61-1.74c-3.46,0-6.06,0.97-8.13,3.1c-1.9,1.94-2.94,4.65-2.94,7.75c0,1.94,0.35,3.68,1.21,5.04
		c0.69,1.36,1.73,2.33,2.77,3.1s2.42,1.55,4.15,2.52c1.9,0.97,3.29,1.94,4.15,2.71c0.87,0.78,1.38,1.74,1.38,3.1
		c0,1.16-0.35,2.33-1.21,3.29c-0.87,0.97-1.9,1.36-3.46,1.36c-1.21,0-2.6-0.39-4.15-1.16c-1.56-0.78-2.94-1.74-4.15-3.1l-1.04,0.19
		l-0.87,6.59c3.11,1.55,6.23,2.33,9.17,2.33c2.42,0,4.5-0.58,6.23-1.55s2.94-2.33,3.81-4.07c0.87-1.74,1.38-3.49,1.38-5.62
		C280.8,519.36,280.46,517.81,279.77,516.65z"/>
	<path class="st2" d="M296.55,513.55c-1.04-0.78-2.42-1.55-4.15-2.52c-1.9-0.97-3.29-1.74-4.15-2.52c-0.87-0.78-1.38-1.74-1.38-3.1
		c0-1.16,0.35-2.13,1.21-3.1c0.69-0.78,1.73-1.16,3.11-1.16c2.25,0,4.5,0.97,6.75,2.71l0.87-0.19l0.87-6.2
		c-2.42-1.16-5.02-1.74-7.61-1.74c-3.46,0-6.06,0.97-8.13,3.1c-1.9,1.94-2.94,4.65-2.94,7.75c0,1.94,0.35,3.68,1.21,5.04
		c0.69,1.36,1.73,2.33,2.77,3.1c1.04,0.78,2.42,1.55,4.15,2.52c1.9,0.97,3.29,1.94,4.15,2.71c0.87,0.78,1.38,1.74,1.38,3.1
		c0,1.16-0.35,2.33-1.21,3.29c-0.87,0.97-1.9,1.36-3.46,1.36c-1.21,0-2.6-0.39-4.15-1.16c-1.56-0.78-2.94-1.74-4.15-3.1l-0.69,0.58
		l-0.87,6.59c3.11,1.55,6.23,2.33,9.17,2.33c2.42,0,4.5-0.58,6.23-1.55s2.94-2.33,3.81-4.07c0.87-1.74,1.38-3.49,1.38-5.62
		c0-1.94-0.35-3.49-1.21-4.84C298.46,515.29,297.59,514.33,296.55,513.55z"/>
	<polygon class="st2" points="307.97,496.69 308.15,517.04 307.97,531.96 314.55,531.96 314.38,516.26 314.55,496.11 	"/>
	<path class="st2" d="M332.72,513.55c-1.04-0.78-2.42-1.55-4.15-2.52c-1.9-0.97-3.29-1.74-4.15-2.52c-0.87-0.78-1.38-1.74-1.38-3.1
		c0-1.16,0.35-2.13,1.21-3.1c0.69-0.78,1.73-1.16,3.11-1.16c2.25,0,4.5,0.97,6.75,2.71l0.87-0.19l0.87-6.2
		c-2.42-1.16-5.02-1.74-7.61-1.74c-3.46,0-6.06,0.97-8.13,3.1c-1.9,1.94-2.94,4.65-2.94,7.75c0,1.94,0.35,3.68,1.21,5.04
		c0.69,1.36,1.73,2.33,2.77,3.1c1.04,0.78,2.42,1.55,4.15,2.52c1.9,0.97,3.29,1.94,4.15,2.71c0.87,0.78,1.38,1.74,1.38,3.1
		c0,1.16-0.35,2.33-1.21,3.29c-0.87,0.97-1.9,1.36-3.46,1.36c-1.21,0-2.6-0.39-4.15-1.16c-1.56-0.78-2.94-1.74-4.15-3.1l-0.69,0.58
		l-0.87,6.59c3.11,1.55,6.23,2.33,9.17,2.33c2.42,0,4.5-0.58,6.23-1.55s2.94-2.33,3.81-4.07c0.87-1.74,1.38-3.49,1.38-5.62
		c0-1.94-0.35-3.49-1.21-4.84C334.8,515.29,333.93,514.33,332.72,513.55z"/>
	<path class="st2" d="M364.04,526.15c-0.69,0-1.21-0.19-1.56-0.58c-0.35-0.39-0.35-1.16-0.35-2.13s0.17-3.88,0.35-9.11
		c0.35-5.23,0.35-8.33,0.35-9.3c0-3.1-0.87-5.43-2.6-7.17c-1.73-1.74-4.15-2.52-7.1-2.52c-3.98,0-7.96,1.55-11.77,4.65l0.87,5.43
		l0.52,0.39c1.73-1.74,3.46-2.91,4.85-3.68s2.94-1.16,4.5-1.16c1.56,0,2.77,0.58,3.46,1.55c0.87,0.97,1.21,2.52,1.21,4.26v4.26
		l-10.38,2.71c-4.33,1.16-6.4,4.07-6.4,8.53c0,3.1,0.87,5.62,2.6,7.36c1.73,1.74,4.15,2.71,7.1,2.71c2.25-1.16,4.67-3.1,6.75-5.81
		h0.52c0.17,1.74,0.69,2.91,1.56,4.07c0.87,0.97,1.9,1.55,3.29,1.74c1.56-0.19,2.94-0.78,4.15-1.74l0.69-4.26l-0.52-0.58
		C365.08,526.15,364.39,526.15,364.04,526.15z M356.6,521.69c-2.25,3.1-4.5,4.65-6.58,4.65c-1.21,0-2.25-0.39-2.94-1.36
		c-0.69-0.97-1.04-2.13-1.04-3.68c0-0.97,0.17-1.74,0.52-2.33c0.35-0.58,0.87-0.78,1.73-0.97l8.48-2.33L356.6,521.69z"/>
	<path class="st2" d="M369.41,482.16l-0.35,5.62l0.52,0.58h7.61l0.35,27.91v6.4c0,2.71-0.52,5.04-1.73,6.78
		c-1.21,1.74-3.29,3.49-6.23,5.23v0.78l2.42,4.46c4.33-2.33,7.44-4.65,9.17-7.36c1.73-2.52,2.6-6.01,2.6-9.88l-0.17-7.17l0.35-33.33
		H369.41z"/>
	<path class="st2" d="M409.73,500.18c-2.25-3.1-5.54-4.65-9.86-4.65c-4.5,0-7.96,1.74-10.38,5.04c-2.42,3.29-3.63,7.95-3.63,14.15
		c0,5.81,1.21,10.08,3.46,13.37c2.25,3.1,5.54,4.65,9.86,4.65c4.5,0,7.96-1.74,10.38-5.04s3.63-7.95,3.63-14.15
		C413.19,507.74,411.98,503.28,409.73,500.18z M405.05,524.21c-1.21,1.94-3.11,2.91-5.54,2.91c-2.6,0-4.5-1.16-5.71-3.49
		c-1.21-2.33-1.9-5.81-1.9-10.85c0-7.95,2.42-12.02,7.44-12.02c2.42,0,4.33,1.16,5.54,3.49c1.21,2.33,1.9,5.81,1.9,10.85
		C406.96,519.36,406.27,522.27,405.05,524.21z"/>
	<path class="st2" d="M440.36,526.15c-0.69,0-1.04-0.19-1.38-0.58c-0.35-0.39-0.35-0.97-0.35-1.94l0.52-27.52l-6.4,0.78v25.19
		c-2.42,2.52-4.85,3.88-7.1,3.88c-1.56,0-2.6-0.58-3.46-1.55c-0.69-1.16-1.21-2.52-1.04-4.46l0.35-23.64l-6.58,0.78l0.35,15.5
		l-0.17,9.69c0,3.29,0.87,6.01,2.6,7.75c1.73,1.74,4.33,2.71,7.61,2.71c2.6-0.97,5.36-2.71,7.96-5.43h0.52
		c0.35,1.74,1.04,2.91,1.73,3.88c0.69,0.78,1.73,1.36,3.11,1.74c1.38-0.19,2.77-0.78,4.33-1.74l0.52-4.26l-0.52-0.58
		C441.57,526.15,440.88,526.15,440.36,526.15z"/>
	<path class="st2" d="M454.2,497.85c-1.38,1.16-2.77,2.91-3.98,5.43h-0.52v-7.17l-6.4,0.78l0.35,20.16l-0.52,14.92h6.75l-0.35-15.7
		v-5.04c1.04-2.71,2.25-4.46,3.46-5.81c1.21-1.16,2.42-1.74,3.81-1.74c0.87,0,1.73,0.19,2.42,0.39l0.69-0.19v-7.56
		c-0.69-0.19-1.21-0.19-1.56-0.19C456.97,496.11,455.59,496.69,454.2,497.85z"/>
	<path class="st2" d="M487.08,506.19c0-3.29-0.87-6.01-2.6-7.75c-1.73-1.74-4.33-2.71-7.61-2.71c-2.77,0.97-5.54,2.91-8.13,5.43
		h-0.52v-5.23l-6.4,0.78l0.35,20.16l-0.35,14.92h6.75l-0.35-15.7v-9.5c2.77-3.1,5.36-4.65,7.96-4.65c1.56,0,2.77,0.58,3.46,1.74
		c0.87,1.16,1.21,2.71,1.21,4.65l-0.52,23.45h6.75l-0.35-15.7L487.08,506.19z"/>
	<path class="st2" d="M514.08,513.55c0.17-1.74,0.35-3.1,0.35-4.26c0-4.26-1.04-7.75-2.94-10.08c-2.08-2.33-4.85-3.49-8.48-3.49
		c-4.33,0-7.79,1.74-10.38,5.04c-2.6,3.29-3.81,7.95-3.81,13.57c0,5.62,1.21,10.08,3.81,13.37c2.6,3.29,6.06,4.84,10.56,4.84
		c2.94,0,6.06-0.78,9.34-2.52l1.04-6.4l-0.69-0.39c-2.94,2.13-5.88,3.1-8.83,3.1s-5.19-0.97-6.75-3.1
		c-1.56-2.13-2.42-5.04-2.42-8.91h18.52L514.08,513.55z M508.19,509.29l-12.98,0.39c0.52-2.71,1.38-4.84,2.6-6.4
		c1.38-1.55,2.94-2.33,5.02-2.33c1.73,0,3.11,0.58,4.15,1.94c0.87,1.16,1.38,3.1,1.38,5.43L508.19,509.29z"/>
	<path class="st2" d="M533.98,496.3l-1.04,5.43l-6.58,21.9h-0.52l-6.58-22.67l-1.04-5.04L512,496.3l11.08,35.47
		c-1.56,2.91-3.11,5.04-4.85,6.4c-1.73,1.36-4.33,2.33-7.27,2.91l-0.17,0.78c0.87,1.94,1.73,3.49,2.77,4.65h0.52
		c2.94-0.97,5.36-1.94,7.27-3.1c1.9-1.16,3.46-2.91,4.67-5.04c1.21-2.13,2.42-4.84,3.46-8.33l10.38-33.91h-5.88V496.3z"/>
	<path class="st2" d="M539.51,523.63c-1.56,0.39-3.11,1.36-4.85,2.52v0.78c1.38,1.16,2.08,2.52,2.08,4.07
		c0,2.52-1.21,4.84-3.63,7.17v0.58l2.25,2.33c4.67-3.88,6.92-7.75,6.92-11.63C542.28,527.31,541.42,525.37,539.51,523.63z"/>
	<polygon class="st2" points="579.14,482.54 579.32,519.36 578.8,519.36 558.9,482.16 551.8,482.16 551.97,517.23 551.63,531.96 
		557.86,531.96 557.69,515.29 557.69,494.75 558.2,494.75 578.11,531.96 585.37,531.96 585.2,517.04 585.55,481.96 	"/>
	<path class="st2" d="M601.29,495.53c-4.5,0-7.96,1.74-10.38,5.04c-2.42,3.29-3.63,7.95-3.63,14.15c0,5.81,1.21,10.08,3.46,13.37
		c2.25,3.1,5.54,4.65,9.86,4.65c4.5,0,7.96-1.74,10.38-5.04c2.42-3.29,3.63-7.95,3.63-14.15c0-5.81-1.21-10.08-3.46-13.37
		C608.74,497.08,605.45,495.53,601.29,495.53z M606.49,524.21c-1.21,1.94-3.11,2.91-5.54,2.91c-2.6,0-4.5-1.16-5.71-3.49
		c-1.21-2.33-1.9-5.81-1.9-10.85c0-7.95,2.42-12.02,7.44-12.02c2.42,0,4.33,1.16,5.54,3.49c1.21,2.33,1.9,5.81,1.9,10.85
		C608.22,519.36,607.7,522.27,606.49,524.21z"/>
	<path class="st2" d="M632.27,501.34l0.35-4.46l-0.35-0.58h-8.48l0.17-7.75l-0.52-0.58l-5.88,2.71v5.62h-3.98l-0.35,4.65l0.35,0.39
		h4.15v15.12l-0.35,5.62c0,3.1,0.69,5.43,1.9,7.17c1.21,1.55,3.11,2.71,5.88,3.29c2.08-0.19,4.33-0.97,6.75-2.33l0.69-5.04
		l-0.69-0.58c-1.56,0.97-3.11,1.36-4.67,1.36c-1.38,0-2.42-0.39-2.94-1.16c-0.52-0.78-0.87-2.13-0.87-4.07l0.35-19.38H632.27z"/>
	<path class="st2" d="M728.66,523.24c-2.94,2.13-5.88,3.1-8.83,3.1c-2.94,0-5.19-0.97-6.75-3.1s-2.42-5.04-2.42-8.91h18.52
		l0.69-0.97c0.17-1.74,0.35-3.1,0.35-4.26c0-4.26-1.04-7.75-2.94-10.08c-2.08-2.33-4.85-3.49-8.48-3.49
		c-4.33,0-7.79,1.74-10.38,5.04c-1.56,2.13-2.77,4.84-3.29,7.95c0-0.97,0.17-2.13,0.17-3.29c0-7.56-1.56-13.37-4.85-17.25
		c-3.29-4.07-7.96-6.01-13.84-6.01l-15.92,0.39l0,0l0.52,34.69l-0.52,14.92l0,0c2.25,0.19,4.67,0.19,7.27,0.39
		c2.6,0,4.85,0.19,6.75,0.19c6.58,0,11.77-2.33,15.23-6.98c2.42-3.1,3.98-7.36,4.85-12.4c0,0.39,0,0.97,0,1.36
		c0,5.62,1.21,10.08,3.81,13.37c2.6,3.29,6.06,4.84,10.56,4.84c2.94,0,6.06-0.78,9.34-2.52l1.04-6.4L728.66,523.24z M713.6,503.28
		c1.38-1.55,2.94-2.33,5.02-2.33c1.73,0,3.11,0.58,4.15,1.94c0.87,1.16,1.38,3.1,1.38,5.43l-0.17,1.16l-12.98,0.39
		C711.53,506.96,712.39,504.83,713.6,503.28z M694.91,521.3c-2.08,3.1-5.19,4.65-9.17,4.65c-1.04,0-2.25,0-3.81-0.19
		s-3.11-0.19-4.67-0.39l-0.17-9.3l0.35-27.52c3.29-0.19,6.23-0.39,8.65-0.39c4.15,0,7.27,1.55,9.17,4.46
		c2.08,3.1,3.11,7.75,3.11,14.15C698.2,513.36,697.16,518.2,694.91,521.3z"/>
	<path class="st2" d="M767.42,501.34l0.35-4.46l-0.35-0.58h-8.48l0.17-7.75l-0.52-0.58l-5.88,2.71v5.62h-3.98v0.97
		c-2.42-1.16-4.85-1.55-7.44-1.55c-3.46,0-6.06,0.97-8.13,3.1c-1.9,1.94-2.94,4.65-2.94,7.75c0,1.94,0.35,3.68,1.21,5.04
		c0.69,1.36,1.73,2.33,2.77,3.1c1.04,0.78,2.42,1.55,4.15,2.52c1.9,0.97,3.29,1.94,4.15,2.71c0.87,0.78,1.38,1.74,1.38,3.1
		c0,1.16-0.35,2.33-1.21,3.29c-0.87,0.97-1.9,1.36-3.46,1.36c-1.21,0-2.6-0.39-4.15-1.16c-1.56-0.78-2.94-1.74-4.15-3.1l-0.69,0.58
		l-0.87,6.59c3.11,1.55,6.23,2.33,9.17,2.33c2.42,0,4.5-0.58,6.23-1.55c1.73-0.97,2.94-2.33,3.81-4.07
		c0.87-1.74,1.38-3.49,1.38-5.62c0-1.94-0.35-3.49-1.21-4.84c-0.69-1.36-1.73-2.33-2.77-3.1c-1.04-0.78-2.42-1.55-4.15-2.52
		c-1.9-0.97-3.29-1.74-4.15-2.52c-0.87-0.78-1.38-1.74-1.38-3.1c0-1.16,0.35-2.13,1.21-3.1c0.69-0.78,1.73-1.16,3.11-1.16
		c2.25,0,4.5,0.97,6.75,2.71l0.87-0.19l0.35-2.52l0.17,0.39h4.15v15.12l-0.35,5.62c0,3.1,0.69,5.43,1.9,7.17
		c1.21,1.55,3.11,2.71,5.88,3.29c2.08-0.19,4.33-0.97,6.75-2.33l0.69-5.04l-0.69-0.58c-1.56,0.97-3.11,1.36-4.67,1.36
		c-1.38,0-2.42-0.39-2.94-1.16c-0.52-0.78-0.87-2.13-0.87-4.07l0.35-19.38h8.48V501.34z"/>
	<polygon class="st2" points="768.46,496.69 768.63,517.04 768.29,531.96 774.86,531.96 774.69,516.26 775.04,496.11 	"/>
	<path class="st2" d="M804.63,506.19c0-3.29-0.87-6.01-2.6-7.75c-1.73-1.74-4.33-2.71-7.61-2.71c-2.77,0.97-5.54,2.91-8.13,5.43
		h-0.52v-5.23l-6.4,0.78l0.35,20.16l-0.35,14.92h6.75l-0.35-15.7v-9.5c2.77-3.1,5.36-4.65,7.96-4.65c1.56,0,2.77,0.58,3.46,1.74
		c0.87,1.16,1.21,2.71,1.21,4.65l-0.52,23.45h6.75l-0.35-15.7L804.63,506.19z"/>
	<path class="st2" d="M830.41,526.15c-0.69,0-1.21-0.19-1.56-0.58c-0.35-0.39-0.35-1.16-0.35-2.13s0.17-3.88,0.35-9.11
		c0.35-5.23,0.35-8.33,0.35-9.3c0-3.1-0.87-5.43-2.6-7.17c-1.73-1.74-4.15-2.52-7.1-2.52c-3.98,0-7.96,1.55-11.77,4.65l0.87,5.43
		l0.52,0.39c1.73-1.74,3.46-2.91,4.85-3.68c1.56-0.78,2.94-1.16,4.5-1.16c1.56,0,2.77,0.58,3.46,1.55c0.87,0.97,1.21,2.52,1.21,4.26
		v4.26l-10.38,2.71c-4.33,1.16-6.4,4.07-6.4,8.53c0,3.1,0.87,5.62,2.6,7.36c1.73,1.74,4.15,2.71,7.1,2.71
		c2.25-1.16,4.67-3.1,6.75-5.81h0.52c0.17,1.74,0.69,2.91,1.56,4.07c0.87,0.97,1.9,1.55,3.29,1.74c1.56-0.19,2.94-0.78,4.15-1.74
		l0.69-4.26l-0.52-0.58C831.45,526.15,830.76,526.15,830.41,526.15z M822.8,521.69c-2.25,3.1-4.5,4.65-6.58,4.65
		c-1.21,0-2.25-0.39-2.94-1.36s-1.04-2.13-1.04-3.68c0-0.97,0.17-1.74,0.52-2.33c0.35-0.58,0.87-0.78,1.73-0.97l8.48-2.33
		L822.8,521.69z"/>
	<path class="st2" d="M849.97,501.34l0.35-4.46l-0.35-0.58h-8.48l0.17-7.75l-0.52-0.58l-5.88,2.71v5.62h-3.98l-0.35,4.65l0.35,0.39
		h4.15v15.12l-0.35,5.62c0,3.1,0.69,5.43,1.9,7.17c1.21,1.55,3.11,2.71,5.88,3.29c2.08-0.19,4.33-0.97,6.75-2.33l0.69-5.04
		l-0.69-0.58c-1.56,0.97-3.11,1.36-4.67,1.36c-1.38,0-2.42-0.39-2.94-1.16s-0.87-2.13-0.87-4.07l0.35-19.38L849.97,501.34
		L849.97,501.34z"/>
	<polygon class="st2" points="850.83,496.69 851.01,517.04 850.83,531.96 857.41,531.96 857.24,516.26 857.41,496.11 	"/>
	<path class="st2" d="M863.29,500.37c-2.42,3.29-3.63,7.95-3.63,14.15c0,5.81,1.21,10.08,3.46,13.37c2.25,3.1,5.54,4.65,9.86,4.65
		c4.5,0,7.96-1.74,10.38-5.04c2.42-3.29,3.63-7.95,3.63-14.15c0-5.81-1.21-10.08-3.46-13.37c-2.25-3.1-5.54-4.65-9.86-4.65
		C869.35,495.53,865.89,497.08,863.29,500.37z M873.33,500.95c2.42,0,4.33,1.16,5.54,3.49c1.21,2.33,1.9,5.81,1.9,10.85
		c0,4.07-0.69,6.98-1.9,8.91c-1.21,1.94-3.11,2.91-5.54,2.91c-2.6,0-4.5-1.16-5.71-3.49c-1.21-2.33-1.9-5.81-1.9-10.85
		C865.89,505.02,868.48,500.95,873.33,500.95z"/>
	<g>
		<path class="st2" d="M662.03,525.95c-0.87,0.19-1.56,0.39-1.9,0.39c-0.69,0-1.21-0.19-1.56-0.58c-0.35-0.39-0.35-1.16-0.35-2.13
			s0.17-3.88,0.35-9.11c0.35-5.23,0.35-8.33,0.35-9.3c0-3.1-0.87-5.43-2.6-7.17s-4.15-2.52-7.1-2.52c-3.98,0-7.96,1.55-11.77,4.65
			l0.87,5.43l0.52,0.39c1.73-1.74,3.46-2.91,4.85-3.68c1.56-0.78,2.94-1.16,4.5-1.16s2.77,0.58,3.46,1.55
			c0.87,0.97,1.21,2.52,1.21,4.26v4.26l-10.38,2.71c-4.33,1.16-6.4,4.07-6.4,8.53c0,3.1,0.87,5.62,2.6,7.36
			c1.73,1.74,4.15,2.71,7.1,2.71c2.25-1.16,4.67-3.1,6.75-5.81h0.52c0.17,1.74,0.69,2.91,1.56,4.07c0.87,0.97,1.9,1.55,3.29,1.74
			c1.56-0.19,2.94-0.78,4.15-1.74l0.69-4.26L662.03,525.95z M652.69,521.69c-2.25,3.1-4.5,4.65-6.58,4.65
			c-1.21,0-2.25-0.39-2.94-1.36s-1.04-2.13-1.04-3.68c0-0.97,0.17-1.74,0.52-2.33c0.35-0.58,0.87-0.78,1.73-0.97l8.48-2.33
			L652.69,521.69z"/>
	</g>
</g>
</svg>
